# xmcd
#
# Track frame offsets: 
#        150
#        5319
#        27636
#        40660
#        47502
#        60110
#        64223
#        78380
#        86282
#        109544
#        119887
#        134062
#        161624
#        176739
#
# Disc length: 2582 seconds
#
# Revision: 0
# Processed by: cddbd v1.5.2PL0 Copyright (c) Steve Scherf et al.
# Submitted via: ExactAudioCopy v1.0b3
#
DISCID=b30a140e
DTITLE=Roda Bonor - Proggladan-Box C [CD 6: Tonkraft 1977)
DYEAR=2013
DGENRE=Swedish Progg
TTITLE0=Intro.
TTITLE1=Sången Om Anne-Marie
TTITLE2=Oh Carol
TTITLE3=Brasiliansk Vaggvisa
TTITLE4=Denna Karl Ar Galen
TTITLE5=Pågar, Det Ar Ingenting
TTITLE6=Diskoteksjakt
TTITLE7=Vaggsång
TTITLE8=Kärlek
TTITLE9=Skärp Dig, Anne-Marie
TTITLE10=Ambitionssegregation
TTITLE11=Sången Om Kvinnans Otäcka Roller
TTITLE12=Sång Från Toscana
TTITLE13=Förbundet - La Lega
EXTD=
EXTT0=
EXTT1=
EXTT2=
EXTT3=
EXTT4=
EXTT5=
EXTT6=
EXTT7=
EXTT8=
EXTT9=
EXTT10=
EXTT11=
EXTT12=
EXTT13=
PLAYORDER=
